<svg width="144" height="202" viewBox="0 0 144 202" fill="none" xmlns="http://www.w3.org/2000/svg">
<path d="M38.375 157.491C30.3494 157.491 23.5135 155.308 17.8672 150.94C12.2209 146.536 7.90625 140.162 4.9233 131.817C1.94034 123.436 0.448864 113.315 0.448864 101.455C0.448864 89.6648 1.94034 79.5973 4.9233 71.2521C7.94176 62.8714 12.2741 56.4794 17.9205 52.076C23.6023 47.6371 30.4205 45.4176 38.375 45.4176C46.3295 45.4176 53.13 47.6371 58.7763 52.076C64.4581 56.4794 68.7905 62.8714 71.7734 71.2521C74.7919 79.5973 76.3011 89.6648 76.3011 101.455C76.3011 113.315 74.8097 123.436 71.8267 131.817C68.8438 140.162 64.5291 146.536 58.8828 150.94C53.2365 155.308 46.4006 157.491 38.375 157.491ZM38.375 145.773C46.3295 145.773 52.5085 141.937 56.9119 134.267C61.3153 126.597 63.517 115.659 63.517 101.455C63.517 92.0085 62.505 83.9652 60.4808 77.3246C58.4922 70.6839 55.6158 65.6236 51.8516 62.1435C48.1229 58.6634 43.6307 56.9233 38.375 56.9233C30.4915 56.9233 24.3303 60.8118 19.8913 68.5888C15.4524 76.3303 13.233 87.2855 13.233 101.455C13.233 110.901 14.2273 118.926 16.2159 125.531C18.2045 132.136 21.0632 137.161 24.7919 140.606C28.5561 144.05 33.0838 145.773 38.375 145.773ZM134.895 46.9091V156H121.685V60.7585H121.045L94.4119 78.4432V65.0199L121.685 46.9091H134.895Z" fill="#FAFAFA" fill-opacity="0.5"/>
</svg>
