<svg width="166" height="202" viewBox="0 0 166 202" fill="none" xmlns="http://www.w3.org/2000/svg">
<path d="M38.875 157.491C30.8494 157.491 24.0135 155.308 18.3672 150.94C12.7209 146.536 8.40625 140.162 5.4233 131.817C2.44034 123.436 0.948864 113.315 0.948864 101.455C0.948864 89.6648 2.44034 79.5973 5.4233 71.2521C8.44176 62.8714 12.7741 56.4794 18.4205 52.076C24.1023 47.6371 30.9205 45.4176 38.875 45.4176C46.8295 45.4176 53.63 47.6371 59.2763 52.076C64.9581 56.4794 69.2905 62.8714 72.2734 71.2521C75.2919 79.5973 76.8011 89.6648 76.8011 101.455C76.8011 113.315 75.3097 123.436 72.3267 131.817C69.3438 140.162 65.0291 146.536 59.3828 150.94C53.7365 155.308 46.9006 157.491 38.875 157.491ZM38.875 145.773C46.8295 145.773 53.0085 141.937 57.4119 134.267C61.8153 126.597 64.017 115.659 64.017 101.455C64.017 92.0085 63.005 83.9652 60.9808 77.3246C58.9922 70.6839 56.1158 65.6236 52.3516 62.1435C48.6229 58.6634 44.1307 56.9233 38.875 56.9233C30.9915 56.9233 24.8303 60.8118 20.3913 68.5888C15.9524 76.3303 13.733 87.2855 13.733 101.455C13.733 110.901 14.7273 118.926 16.7159 125.531C18.7045 132.136 21.5632 137.161 25.2919 140.606C29.0561 144.05 33.5838 145.773 38.875 145.773ZM97.0426 156V146.412L133.051 106.994C137.277 102.378 140.757 98.3651 143.491 94.956C146.226 91.5114 148.25 88.2798 149.564 85.2614C150.913 82.2074 151.588 79.0114 151.588 75.6733C151.588 71.8381 150.665 68.5178 148.818 65.7124C147.007 62.907 144.521 60.7408 141.361 59.2138C138.2 57.6868 134.649 56.9233 130.707 56.9233C126.517 56.9233 122.859 57.7933 119.734 59.5334C116.645 61.2379 114.248 63.6349 112.543 66.7244C110.874 69.8139 110.04 73.4361 110.04 77.5909H97.4688C97.4688 71.1989 98.9425 65.5881 101.89 60.7585C104.837 55.929 108.85 52.1648 113.928 49.4659C119.042 46.767 124.777 45.4176 131.134 45.4176C137.526 45.4176 143.19 46.767 148.126 49.4659C153.062 52.1648 156.933 55.8047 159.738 60.3857C162.543 64.9666 163.946 70.0625 163.946 75.6733C163.946 79.6861 163.218 83.6101 161.762 87.4453C160.342 91.245 157.856 95.4886 154.305 100.176C150.789 104.828 145.906 110.51 139.656 117.222L115.153 143.429V144.281H165.864V156H97.0426Z" fill="#FAFAFA" fill-opacity="0.5"/>
</svg>
