<svg width="171" height="202" viewBox="0 0 171 202" fill="none" xmlns="http://www.w3.org/2000/svg">
<path d="M38.375 157.491C30.3494 157.491 23.5135 155.308 17.8672 150.94C12.2209 146.536 7.90625 140.162 4.9233 131.817C1.94034 123.436 0.448864 113.315 0.448864 101.455C0.448864 89.6648 1.94034 79.5973 4.9233 71.2521C7.94176 62.8714 12.2741 56.4794 17.9205 52.076C23.6023 47.6371 30.4205 45.4176 38.375 45.4176C46.3295 45.4176 53.13 47.6371 58.7763 52.076C64.4581 56.4794 68.7905 62.8714 71.7734 71.2521C74.7919 79.5973 76.3011 89.6648 76.3011 101.455C76.3011 113.315 74.8097 123.436 71.8267 131.817C68.8438 140.162 64.5291 146.536 58.8828 150.94C53.2365 155.308 46.4006 157.491 38.375 157.491ZM38.375 145.773C46.3295 145.773 52.5085 141.937 56.9119 134.267C61.3153 126.597 63.517 115.659 63.517 101.455C63.517 92.0085 62.505 83.9652 60.4808 77.3246C58.4922 70.6839 55.6158 65.6236 51.8516 62.1435C48.1229 58.6634 43.6307 56.9233 38.375 56.9233C30.4915 56.9233 24.3303 60.8118 19.8913 68.5888C15.4524 76.3303 13.233 87.2855 13.233 101.455C13.233 110.901 14.2273 118.926 16.2159 125.531C18.2045 132.136 21.0632 137.161 24.7919 140.606C28.5561 144.05 33.0838 145.773 38.375 145.773ZM133.403 157.491C126.372 157.491 120.104 156.284 114.6 153.869C109.131 151.455 104.781 148.099 101.55 143.802C98.3537 139.469 96.6136 134.445 96.3295 128.727H109.753C110.037 132.243 111.244 135.279 113.375 137.836C115.506 140.357 118.293 142.31 121.738 143.695C125.183 145.08 129 145.773 133.19 145.773C137.878 145.773 142.033 144.956 145.655 143.322C149.277 141.689 152.118 139.416 154.178 136.504C156.237 133.592 157.267 130.219 157.267 126.384C157.267 122.371 156.273 118.837 154.284 115.783C152.295 112.694 149.384 110.279 145.548 108.539C141.713 106.799 137.026 105.929 131.486 105.929H122.75V94.2102H131.486C135.818 94.2102 139.618 93.429 142.885 91.8665C146.188 90.304 148.762 88.1023 150.609 85.2614C152.491 82.4205 153.432 79.0824 153.432 75.2472C153.432 71.554 152.615 68.3402 150.982 65.6058C149.348 62.8714 147.04 60.7408 144.057 59.2138C141.109 57.6868 137.629 56.9233 133.616 56.9233C129.852 56.9233 126.301 57.6158 122.963 59.0007C119.661 60.3501 116.962 62.321 114.866 64.9134C112.771 67.4702 111.635 70.5597 111.457 74.1818H98.6733C98.8864 68.4645 100.609 63.4574 103.84 59.1605C107.072 54.8281 111.298 51.4545 116.518 49.0398C121.773 46.625 127.544 45.4176 133.83 45.4176C140.577 45.4176 146.365 46.7848 151.195 49.5192C156.024 52.218 159.735 55.7869 162.327 60.2259C164.92 64.6648 166.216 69.4588 166.216 74.608C166.216 80.7514 164.6 85.9893 161.369 90.3217C158.173 94.6541 153.822 97.6548 148.318 99.3239V100.176C155.207 101.312 160.587 104.242 164.458 108.965C168.329 113.653 170.264 119.459 170.264 126.384C170.264 132.314 168.648 137.641 165.417 142.364C162.221 147.051 157.853 150.744 152.313 153.443C146.773 156.142 140.47 157.491 133.403 157.491Z" fill="#FAFAFA" fill-opacity="0.5"/>
</svg>
