<svg width="89" height="89" viewBox="0 0 89 89" fill="none" xmlns="http://www.w3.org/2000/svg">
<g clip-path="url(#clip0_18_61)">
<path d="M87.7639 0H44.2067C43.8789 0.000114843 43.5645 0.129524 43.3327 0.359784C43.1009 0.590043 42.9707 0.902309 42.9705 1.22794V10.6867H1.23613C1.07374 10.6867 0.912955 10.7186 0.762949 10.7803C0.612944 10.8421 0.476658 10.9327 0.361873 11.0468C0.247088 11.1609 0.156051 11.2963 0.0939611 11.4454C0.0318708 11.5944 -5.72129e-05 11.7542 7.69616e-08 11.9155V87.7721C7.69616e-08 88.0977 0.130235 88.4101 0.362054 88.6404C0.593873 88.8706 0.908288 89 1.23613 89H77.5992C77.927 88.9999 78.2413 88.8705 78.4731 88.6402C78.7049 88.41 78.8352 88.0977 78.8353 87.7721V45.7243H87.7639C87.9262 45.7243 88.087 45.6926 88.237 45.6309C88.387 45.5692 88.5233 45.4788 88.6381 45.3647C88.7529 45.2507 88.8439 45.1153 88.906 44.9663C88.9681 44.8173 89.0001 44.6576 89 44.4963V1.22794C88.9999 0.902309 88.8696 0.590043 88.6378 0.359784C88.406 0.129524 88.0917 0.000114843 87.7639 0ZM76.363 86.5441H2.47226V13.1426H44.2206L76.5183 13.1317L76.363 86.5441ZM86.526 43.2688L78.8855 43.3182V11.802C78.8856 11.6395 78.8532 11.4786 78.7902 11.3287C78.7272 11.1787 78.6349 11.0427 78.5186 10.9284C78.282 10.7005 77.965 10.5733 77.6354 10.574L45.4411 10.6728V2.45589H86.526V43.2688Z" fill="black"/>
</g>
<defs>
<clipPath id="clip0_18_61">
<rect width="89" height="89" fill="white"/>
</clipPath>
</defs>
</svg>
