<svg width="68" height="84" viewBox="0 0 68 84" fill="none" xmlns="http://www.w3.org/2000/svg">
<g clip-path="url(#clip0_18_64)">
<path d="M36.9233 81.6712H2.34297V65.3557C2.344 59.9243 4.18785 54.6521 7.57645 50.3912C10.9651 46.1304 15.7003 43.13 21.0168 41.8751C26.3332 40.6202 31.9201 41.1842 36.8741 43.4759C41.8282 45.7676 45.8599 49.653 48.3174 54.504C48.4573 54.7798 48.7016 54.9891 48.9967 55.0859C49.2918 55.1826 49.6135 55.1589 49.8909 55.0199C50.1684 54.8809 50.379 54.638 50.4763 54.3447C50.5736 54.0514 50.5498 53.7317 50.4099 53.4559C48.7351 50.1315 46.3711 47.1972 43.4735 44.8461C40.5759 42.4949 37.2104 40.7802 33.5982 39.8148C38.1335 38.0741 41.9094 34.8052 44.2666 30.5789C46.6237 26.3526 47.4123 21.4375 46.4945 16.6921C45.5767 11.9466 43.011 7.67248 39.2453 4.61609C35.4797 1.5597 30.7535 -0.0846841 25.8922 -0.0298612C21.0309 0.0249618 16.3434 1.77551 12.6485 4.91603C8.9536 8.05656 6.48606 12.3875 5.67684 17.1524C4.86763 21.9173 5.76817 26.8133 8.22119 30.9854C10.6742 35.1574 14.5238 38.3404 19.0976 39.9783C13.589 41.5993 8.75431 44.9452 5.31319 49.5178C1.87208 54.0904 0.00854636 59.6454 0 65.3557L0 82.8356C0.000109562 83.1444 0.123569 83.4405 0.343242 83.6589C0.562914 83.8772 0.860823 83.9999 1.17149 84H36.9233C37.234 84 37.532 83.8773 37.7517 83.659C37.9714 83.4406 38.0948 83.1444 38.0948 82.8356C38.0948 82.5268 37.9714 82.2306 37.7517 82.0122C37.532 81.7939 37.234 81.6712 36.9233 81.6712ZM7.73 20.6112C7.72951 16.9949 8.80793 13.4596 10.8289 10.4525C12.8499 7.4454 15.7226 5.10151 19.0838 3.71725C22.445 2.333 26.1436 1.97057 29.7121 2.67578C33.2805 3.381 36.5584 5.12218 39.1312 7.67915C41.704 10.2361 43.4562 13.494 44.1662 17.0408C44.8762 20.5876 44.512 24.2641 43.1198 27.6052C41.7276 30.9463 39.3699 33.802 36.3448 35.8112C33.3198 37.8204 29.7632 38.8928 26.1249 38.8928C21.2483 38.8878 16.5727 36.9602 13.1242 33.5329C9.67562 30.1056 7.73569 25.4585 7.73 20.6112Z" fill="black"/>
<path d="M67.5966 59.7415C67.4805 59.6409 67.3455 59.5641 67.1995 59.5154C67.0535 59.4668 66.8992 59.4473 66.7456 59.4581C66.592 59.4688 66.442 59.5097 66.3043 59.5782C66.1666 59.6467 66.0438 59.7415 65.9431 59.8573L47.7052 80.7327L42.7713 72.0008C42.6189 71.7316 42.3652 71.5335 42.066 71.4502C41.7668 71.3669 41.4465 71.4052 41.1757 71.5566C40.9048 71.708 40.7056 71.9602 40.6218 72.2576C40.538 72.5551 40.5765 72.8734 40.7288 73.1426L46.478 83.313C46.5701 83.4757 46.7002 83.614 46.8573 83.7163C47.0144 83.8186 47.1939 83.8819 47.3807 83.901L47.499 83.9063C47.6668 83.9065 47.8327 83.8707 47.9855 83.8014C48.1382 83.7321 48.2741 83.631 48.384 83.5049L67.7131 61.3813C67.916 61.1483 68.0177 60.8448 67.9958 60.5374C67.974 60.23 67.8304 59.9438 67.5966 59.7415Z" fill="black"/>
</g>
<defs>
<clipPath id="clip0_18_64">
<rect width="68" height="84" fill="white"/>
</clipPath>
</defs>
</svg>
