<svg width="87" height="85" viewBox="0 0 87 85" fill="none" xmlns="http://www.w3.org/2000/svg">
<g clip-path="url(#clip0_18_55)">
<path d="M43.5014 43.2262C43.3165 43.2267 43.1341 43.184 42.9689 43.1015L0.654007 21.9367C0.454902 21.8375 0.287954 21.6845 0.172301 21.4953C0.056649 21.3061 -0.00302588 21.0884 0.000118122 20.867C0.00326213 20.6457 0.0690978 20.4297 0.190077 20.2438C0.311057 20.058 0.482283 19.9097 0.684126 19.8161L42.999 0.112073C43.1559 0.0382769 43.3274 0 43.501 0C43.6746 0 43.8461 0.0382769 44.003 0.112073L86.3179 19.817C86.5197 19.9106 86.6909 20.0588 86.8119 20.2447C86.9329 20.4305 86.9987 20.6465 87.0019 20.8679C87.005 21.0892 86.9454 21.307 86.8297 21.4962C86.7141 21.6854 86.5471 21.8383 86.348 21.9375L44.034 43.101C43.8688 43.1838 43.6864 43.2267 43.5014 43.2262ZM3.89896 20.9217L43.5014 40.7294L83.103 20.9217L43.5014 2.48002L3.89896 20.9217Z" fill="black"/>
<path d="M43.5004 56.7463C43.3155 56.7469 43.1331 56.7041 42.9679 56.6216L0.65303 35.4568C0.453926 35.3576 0.286977 35.2047 0.171325 35.0155C0.0556724 34.8263 -0.00400244 34.6085 -0.00085844 34.3872C0.00228556 34.1658 0.0681212 33.9498 0.189101 33.764C0.31008 33.5781 0.481307 33.4299 0.68315 33.3363L9.7537 29.1118C10.0376 28.9846 10.3606 28.9735 10.6526 29.0811C10.9447 29.1887 11.1824 29.4062 11.3144 29.6866C11.4463 29.9671 11.4619 30.2879 11.3577 30.5796C11.2535 30.8714 11.038 31.1107 10.7577 31.2457L3.89715 34.441L43.4996 54.2482L83.1012 34.441L76.1106 31.1858C75.8303 31.0508 75.6147 30.8115 75.5106 30.5198C75.4064 30.228 75.4219 29.9072 75.5539 29.6268C75.6858 29.3463 75.9236 29.1288 76.2156 29.0212C76.5077 28.9136 76.8306 28.9247 77.1146 29.0519L86.3152 33.3346C86.5171 33.4282 86.6883 33.5764 86.8093 33.7623C86.9303 33.9482 86.9961 34.1642 86.9992 34.3855C87.0024 34.6069 86.9427 34.8246 86.8271 35.0138C86.7114 35.203 86.5444 35.356 86.3453 35.4552L44.0313 56.6191C43.8668 56.7023 43.685 56.7459 43.5004 56.7463Z" fill="black"/>
<path d="M43.5004 70.1328C43.3155 70.1334 43.1331 70.0906 42.9679 70.0081L0.65303 48.8421C0.453926 48.7429 0.286977 48.5899 0.171325 48.4007C0.0556724 48.2115 -0.00400244 47.9938 -0.00085844 47.7724C0.00228556 47.5511 0.0681212 47.3351 0.189101 47.1492C0.31008 46.9633 0.481307 46.8151 0.68315 46.7215L9.7537 42.4983C10.0371 42.3742 10.3581 42.3653 10.648 42.4735C10.9379 42.5817 11.1737 42.7984 11.3049 43.0772C11.4361 43.356 11.4523 43.6748 11.3501 43.9653C11.2478 44.2559 11.0352 44.4951 10.7577 44.6318L3.89715 47.8263L43.4984 67.6347L83.1 47.8263L76.1093 44.5706C75.8283 44.4361 75.612 44.1969 75.5073 43.9049C75.4026 43.6128 75.4181 43.2915 75.5502 43.0107C75.6824 42.7299 75.9207 42.5122 76.2133 42.4049C76.5059 42.2976 76.8293 42.3094 77.1133 42.4376L86.314 46.7203C86.5158 46.8139 86.687 46.9621 86.808 47.148C86.929 47.3338 86.9948 47.5498 86.998 47.7712C87.0011 47.9925 86.9414 48.2103 86.8258 48.3995C86.7101 48.5887 86.5432 48.7416 86.3441 48.8408L44.033 70.0073C43.8679 70.0902 43.6854 70.1332 43.5004 70.1328Z" fill="black"/>
<path d="M43.5004 85C43.3155 85.0005 43.1331 84.9578 42.9679 84.8752L0.65303 63.7105C0.453926 63.6113 0.286977 63.4583 0.171325 63.2691C0.0556724 63.0799 -0.00400244 62.8622 -0.00085844 62.6408C0.00228556 62.4195 0.0681212 62.2035 0.189101 62.0176C0.31008 61.8317 0.481307 61.6835 0.68315 61.5899L9.7537 57.3659C9.89517 57.2962 10.0492 57.2553 10.2068 57.2456C10.3644 57.2359 10.5223 57.2576 10.6714 57.3095C10.8204 57.3613 10.9575 57.4422 11.0746 57.5474C11.1918 57.6527 11.2865 57.7801 11.3534 57.9222C11.4203 58.0644 11.458 58.2184 11.4642 58.3752C11.4703 58.532 11.4449 58.6885 11.3894 58.8354C11.3339 58.9823 11.2495 59.1167 11.141 59.2307C11.0325 59.3447 10.9022 59.4361 10.7577 59.4993L3.89715 62.6947L43.4996 82.5023L83.1012 62.6947L76.1106 59.4394C75.8331 59.3028 75.6205 59.0636 75.5182 58.773C75.416 58.4825 75.4322 58.1637 75.5634 57.8849C75.6946 57.6061 75.9304 57.3894 76.2203 57.2812C76.5102 57.173 76.8312 57.1819 77.1146 57.306L86.3152 61.5887C86.5171 61.6823 86.6883 61.8305 86.8093 62.0164C86.9303 62.2022 86.9961 62.4182 86.9992 62.6396C87.0024 62.8609 86.9427 63.0787 86.8271 63.2679C86.7114 63.4571 86.5444 63.61 86.3453 63.7092L44.0313 84.8732C43.8668 84.9563 43.685 84.9997 43.5004 85Z" fill="black"/>
</g>
<defs>
<clipPath id="clip0_18_55">
<rect width="87" height="85" fill="white"/>
</clipPath>
</defs>
</svg>
