<svg width="214" height="135" viewBox="0 0 214 135" fill="none" xmlns="http://www.w3.org/2000/svg">
<path d="M138.361 80.3174L169.683 79.4467C168.919 82.4816 167.926 85.454 166.712 88.3382L138.448 86.6297C138.535 85.7482 138.579 84.8558 138.579 83.9525C138.578 82.7376 138.505 81.5238 138.361 80.3174Z" fill="#1D1D1B"/>
<path d="M53.5035 131.302H51.2287V134.665H53.5035V131.302Z" fill="#017333"/>
<path d="M79.777 70.4138C79.0746 71.8444 78.4887 73.3293 78.0249 74.854L43.6996 67.0509C43.6451 65.9409 43.6124 64.8307 43.6124 63.7097C43.6086 60.57 43.8378 57.4343 44.2981 54.3285L79.777 70.4138Z" fill="#1D1D1B"/>
<path d="M85.8481 61.9342C84.5225 63.259 83.3172 64.699 82.2463 66.2371L59.636 50.339C61.2178 47.2752 63.0962 44.3739 65.2443 41.6768L85.8481 61.9342Z" fill="#1D1D1B"/>
<path d="M95.0133 55.678C93.3194 56.4268 91.6983 57.3304 90.1706 58.3774L61.8743 18.9475C65.2821 15.4508 69.0839 12.3611 73.2036 9.74039L95.0133 55.678Z" fill="#1D1D1B"/>
<path d="M104.953 53.1189C102.966 53.272 101 53.6312 99.0871 54.1906L90.9326 23.9737C94.5836 22.8137 98.35 22.0545 102.165 21.7095H102.173L104.953 53.1189Z" fill="#1D1D1B"/>
<path d="M128.795 3.28671L115.898 54.1108C114.032 53.5882 112.118 53.2528 110.184 53.1096L113.906 0C118.984 0.490484 123.983 1.59409 128.795 3.28671Z" fill="#1D1D1B"/>
<path d="M142.1 34.6342L125.17 58.4451C123.648 57.3856 122.029 56.4711 120.336 55.7135L133.559 28.5345C136.597 30.2851 139.458 32.328 142.1 34.6342Z" fill="#1D1D1B"/>
<path d="M167.658 41.4538L133.006 66.2346C131.927 64.6879 130.711 63.2419 129.371 61.914L161.575 29.2429C164.032 33.0845 166.072 37.1781 167.658 41.4538Z" fill="#1D1D1B"/>
<path d="M160.157 69.7342L137.459 75.6808C136.995 73.9865 136.383 72.3363 135.629 70.7495L158.248 59.8069C159.199 63.0476 159.839 66.3718 160.157 69.7342Z" fill="#1D1D1B"/>
<path d="M26.5158 119.412C26.4666 120.388 26.0561 121.31 25.3641 121.999C24.6722 122.688 23.7484 123.095 22.7728 123.141H2.65159V131.723H0V109.182H22.7853C23.7608 109.231 24.6831 109.642 25.3725 110.334C26.0618 111.026 26.4687 111.949 26.5139 112.925L26.5158 119.412ZM23.8675 119.279L23.8649 113.046C23.8499 112.73 23.7174 112.43 23.4934 112.205C23.2693 111.98 22.9697 111.847 22.6528 111.831H2.65159V120.452L22.6511 120.492C22.9683 120.477 23.2686 120.344 23.4935 120.12C23.7184 119.896 23.8515 119.596 23.8675 119.279Z" fill="#017333"/>
<path d="M53.5035 129.073V131.725H30.6089V109.181H33.2605V129.073H47.8223V109.181H50.4743V129.073H53.5035Z" fill="#017333"/>
<path d="M84.0287 109.182V131.723H81.3764V111.835H60.1678V131.723H57.5154V111.835H57.5128V109.182L84.0287 109.182Z" fill="#017333"/>
<path d="M115.636 109.182V131.723H112.984V111.835H91.775V131.723H89.1234V111.835H89.1201V109.182L115.636 109.182Z" fill="#017333"/>
<path d="M150.557 109.182V131.723H147.905V111.835H147.455L136.952 131.723H134.333L123.83 111.835H123.38V131.723H120.727V109.182H125.429L135.642 128.524L145.856 109.184V109.182L150.557 109.182Z" fill="#017333"/>
<path d="M180.046 126.094H182.699C182.674 126.791 182.644 127.488 182.609 128.186C182.56 129.161 182.15 130.083 181.458 130.773C180.766 131.462 179.842 131.869 178.867 131.914C175.622 132.063 172.377 132.137 169.132 132.137C165.888 132.137 162.643 132.063 159.398 131.914C158.422 131.869 157.498 131.462 156.806 130.773C156.114 130.084 155.704 129.161 155.655 128.186C155.397 123.033 155.397 117.872 155.655 112.719C155.704 111.744 156.114 110.822 156.806 110.132C157.498 109.443 158.422 109.036 159.398 108.991C162.643 108.843 165.887 108.768 169.132 108.768C172.376 108.768 175.621 108.842 178.866 108.991C179.841 109.036 180.765 109.443 181.457 110.132C182.149 110.821 182.56 111.744 182.609 112.719C182.644 113.419 182.674 114.119 182.699 114.818H180.046C180.022 114.161 179.994 113.506 179.96 112.852C179.944 112.536 179.811 112.236 179.587 112.012C179.362 111.788 179.062 111.655 178.745 111.64C175.555 111.494 172.321 111.419 169.132 111.419C165.943 111.419 162.709 111.494 159.519 111.64C159.202 111.656 158.902 111.788 158.677 112.012C158.453 112.236 158.319 112.536 158.303 112.852C158.051 117.897 158.051 123.011 158.303 128.053C158.319 128.37 158.453 128.67 158.677 128.894C158.902 129.118 159.202 129.25 159.519 129.265C162.708 129.412 165.943 129.486 169.132 129.486C172.322 129.486 175.556 129.412 178.745 129.265C179.062 129.25 179.362 129.118 179.587 128.894C179.811 128.67 179.944 128.37 179.96 128.053C179.993 127.401 180.022 126.748 180.046 126.094Z" fill="#017333"/>
<path d="M213.295 109.182V131.723H210.643V111.835H189.434V131.723H186.782V111.835H186.779V109.182L213.295 109.182Z" fill="#017333"/>
<path d="M164.01 94.0268C162.709 96.4416 161.254 98.7707 159.656 101C159.429 101.313 159.13 101.568 158.785 101.743C158.44 101.919 158.058 102.009 157.67 102.008H56.3348C50.5709 94.3261 46.6263 85.4359 44.7986 76.0077H115.882C116.033 76.0077 116.182 76.0417 116.318 76.107C116.455 76.1724 116.575 76.2675 116.669 76.3853L117.074 76.8893C117.614 77.5559 117.919 78.382 117.943 79.2397C117.966 80.0974 117.707 80.939 117.204 81.6343L116.669 82.3646C116.575 82.4924 116.452 82.5963 116.311 82.668C116.169 82.7396 116.013 82.7769 115.855 82.777H99.5062C99.3762 82.777 99.2483 82.809 99.1336 82.8701C99.0189 82.9313 98.9211 83.0197 98.8487 83.1276L98.4853 83.6694C97.9202 84.5058 97.612 85.4891 97.5984 86.4984C97.5849 87.5077 97.8667 88.4989 98.4092 89.3501L98.85 90.0327C98.9217 90.1439 99.0202 90.2354 99.1364 90.2987C99.2526 90.3621 99.3828 90.3953 99.5151 90.3953H161.87C162.295 90.3968 162.713 90.5088 163.082 90.7204C163.45 90.9319 163.758 91.2358 163.974 91.6021C164.189 91.9684 164.306 92.3846 164.312 92.8097C164.319 93.2348 164.214 93.6543 164.01 94.0268Z" fill="#65B444"/>
<path d="M104.953 53.1189C102.966 53.272 101 53.6312 99.0871 54.1906L90.9326 23.9737C94.5836 22.8137 98.35 22.0545 102.165 21.7095H102.173L104.953 53.1189Z" fill="#65B444"/>
<path d="M95.0133 55.678C93.3194 56.4268 91.6983 57.3304 90.1706 58.3774L61.8743 18.9475C65.2821 15.4508 69.0839 12.3611 73.2036 9.74039L95.0133 55.678Z" fill="#07A649"/>
<path d="M85.8481 61.9342C84.5225 63.259 83.3172 64.699 82.2463 66.2371L59.636 50.339C61.2178 47.2752 63.0962 44.3739 65.2443 41.6768L85.8481 61.9342Z" fill="#65B444"/>
<path d="M79.777 70.4138C79.0746 71.8444 78.4887 73.3293 78.0249 74.854L43.6996 67.0509C43.6451 65.9409 43.6124 64.8307 43.6124 63.7097C43.6086 60.57 43.8378 57.4343 44.2981 54.3285L79.777 70.4138Z" fill="#07A649"/>
<path d="M128.795 3.28671L115.898 54.1108C114.032 53.5882 112.118 53.2528 110.184 53.1096L113.906 0C118.984 0.490484 123.983 1.59409 128.795 3.28671Z" fill="#07A649"/>
<path d="M142.1 34.6342L125.17 58.4451C123.648 57.3856 122.029 56.4711 120.336 55.7135L133.559 28.5345C136.597 30.2851 139.458 32.328 142.1 34.6342Z" fill="#65B444"/>
<path d="M167.658 41.4538L133.006 66.2346C131.927 64.6879 130.711 63.2419 129.371 61.914L161.575 29.2429C164.032 33.0845 166.072 37.1781 167.658 41.4538Z" fill="#07A649"/>
<path d="M160.157 69.7342L137.459 75.6808C136.995 73.9865 136.383 72.3363 135.629 70.7495L158.248 59.8069C159.199 63.0476 159.839 66.3718 160.157 69.7342Z" fill="#65B444"/>
<path d="M169.682 79.4467C168.919 82.4816 167.926 85.454 166.711 88.3382L138.448 86.6297C138.535 85.7482 138.578 84.8558 138.578 83.9525C138.578 82.7376 138.505 81.5239 138.361 80.3176L169.682 79.4467Z" fill="#07A649"/>
</svg>
