<svg width="429" height="273" viewBox="0 0 429 273" fill="none" xmlns="http://www.w3.org/2000/svg">
<g clip-path="url(#clip0_82_218)">
<path d="M53.3313 242.08C53.2324 244.057 52.4066 245.927 51.0149 247.324C49.6232 248.721 47.7652 249.546 45.8029 249.638H5.33314V267.036H0V221.341H45.828C47.7901 221.44 49.6452 222.272 51.0316 223.675C52.4181 225.078 53.2365 226.951 53.3274 228.929L53.3313 242.08ZM48.0048 241.81L47.9994 229.175C47.9692 228.532 47.7029 227.924 47.2523 227.468C46.8016 227.013 46.199 226.743 45.5616 226.711H5.33314V244.188L45.5582 244.268C46.1962 244.238 46.8001 243.969 47.2525 243.515C47.7048 243.06 47.9726 242.453 48.0048 241.81Z" fill="white"/>
<path d="M107.611 261.664V267.04H61.5635V221.338H66.8966V261.664H96.1847V221.338H101.519V261.664H107.611Z" fill="white"/>
<path d="M169.007 221.341V267.036H163.673V226.718H121.016V267.037H115.681V226.718H115.676V221.341L169.007 221.341Z" fill="white"/>
<path d="M232.578 221.341V267.036H227.245V226.718H184.587V267.037H179.254V226.718H179.247V221.341L232.578 221.341Z" fill="white"/>
<path d="M302.815 221.341V267.036H297.482V226.718H296.576L275.452 267.037H270.183L249.059 226.718H248.153V267.037H242.819V221.341H252.275L272.817 260.551L293.359 221.344V221.341L302.815 221.341Z" fill="white"/>
<path d="M362.126 255.625H367.463C367.413 257.038 367.352 258.451 367.282 259.866C367.184 261.843 366.358 263.712 364.967 265.11C363.575 266.507 361.717 267.332 359.755 267.424C353.229 267.726 346.702 267.877 340.176 267.876C333.65 267.876 327.124 267.725 320.597 267.424C318.635 267.333 316.776 266.508 315.385 265.111C313.993 263.713 313.167 261.843 313.069 259.866C312.549 249.421 312.549 238.956 313.069 228.511C313.167 226.534 313.993 224.664 315.385 223.267C316.776 221.869 318.635 221.045 320.597 220.954C327.123 220.652 333.649 220.501 340.175 220.501C346.701 220.5 353.227 220.651 359.753 220.954C361.715 221.045 363.573 221.869 364.965 223.267C366.357 224.664 367.183 226.534 367.281 228.511C367.352 229.931 367.413 231.349 367.463 232.765H362.126C362.078 231.435 362.021 230.107 361.954 228.781C361.922 228.139 361.655 227.531 361.203 227.077C360.751 226.623 360.148 226.354 359.51 226.324C353.095 226.028 346.589 225.876 340.175 225.876C333.762 225.876 327.256 226.028 320.841 226.324C320.203 226.355 319.6 226.623 319.148 227.077C318.696 227.531 318.428 228.139 318.395 228.781C317.888 239.007 317.888 249.375 318.395 259.597C318.428 260.24 318.696 260.847 319.148 261.301C319.6 261.755 320.203 262.024 320.841 262.054C327.255 262.351 333.76 262.501 340.175 262.501C346.591 262.501 353.095 262.351 359.51 262.054C360.148 262.024 360.751 261.755 361.203 261.301C361.655 260.847 361.922 260.24 361.954 259.597C362.02 258.275 362.077 256.951 362.126 255.625Z" fill="white"/>
<path d="M429 221.341V267.036H423.666V226.718H381.009V267.037H375.674V226.718H375.669V221.341L429 221.341Z" fill="white"/>
<path d="M107.611 266.184H103.036V273H107.611V266.184Z" fill="white"/>
<path d="M278.286 162.824L341.283 161.059C339.747 167.212 337.749 173.237 335.307 179.085L278.461 175.621C278.636 173.834 278.723 172.025 278.723 170.194C278.721 167.731 278.575 165.27 278.286 162.824Z" fill="white"/>
<path d="M160.456 142.747C159.043 145.647 157.864 148.657 156.932 151.749L87.8931 135.93C87.7835 133.679 87.7179 131.429 87.7179 129.156C87.7101 122.791 88.171 116.434 89.0969 110.138L160.456 142.747Z" fill="white"/>
<path d="M172.666 125.557C170 128.242 167.576 131.162 165.422 134.28L119.946 102.05C123.127 95.8391 126.905 89.9575 131.226 84.4897L172.666 125.557Z" fill="white"/>
<path d="M191.1 112.874C187.693 114.392 184.433 116.224 181.36 118.346L124.448 38.4115C131.302 31.3228 138.949 25.0593 147.234 19.7463L191.1 112.874Z" fill="white"/>
<path d="M211.092 107.686C207.095 107.996 203.141 108.724 199.294 109.858L182.893 48.601C190.236 46.2493 197.811 44.7101 205.485 44.0108H205.501L211.092 107.686Z" fill="white"/>
<path d="M259.044 6.66301L233.106 109.697C229.351 108.637 225.502 107.957 221.614 107.667L229.1 0C239.312 0.994339 249.366 3.23163 259.044 6.66301Z" fill="white"/>
<path d="M285.806 70.2126L251.755 118.483C248.693 116.336 245.437 114.482 242.031 112.946L268.626 57.8468C274.738 61.3957 280.492 65.5373 285.806 70.2126Z" fill="white"/>
<path d="M337.211 84.0377L267.516 134.275C265.345 131.139 262.898 128.208 260.205 125.516L324.975 59.283C329.918 67.0709 334.02 75.3697 337.211 84.0377Z" fill="white"/>
<path d="M322.125 141.369L276.47 153.425C275.538 149.99 274.307 146.644 272.792 143.427L318.284 121.244C320.197 127.814 321.483 134.553 322.125 141.369Z" fill="white"/>
<path d="M329.873 190.617C327.256 195.512 324.331 200.234 321.116 204.753C320.659 205.388 320.058 205.905 319.364 206.26C318.67 206.616 317.901 206.799 317.122 206.796H113.306C101.713 191.223 93.7795 173.201 90.1035 154.087H233.073C233.377 154.087 233.677 154.156 233.951 154.289C234.225 154.421 234.466 154.614 234.657 154.853L235.47 155.874C236.556 157.226 237.171 158.901 237.218 160.639C237.266 162.378 236.744 164.084 235.732 165.494L234.655 166.974C234.467 167.233 234.22 167.444 233.936 167.589C233.652 167.735 233.337 167.81 233.019 167.81H200.137C199.875 167.81 199.618 167.875 199.387 167.999C199.157 168.123 198.96 168.303 198.814 168.521L198.083 169.62C196.947 171.315 196.327 173.309 196.3 175.355C196.273 177.401 196.839 179.41 197.93 181.136L198.817 182.52C198.961 182.745 199.159 182.93 199.393 183.059C199.627 183.187 199.889 183.255 200.155 183.255H325.57C326.425 183.258 327.264 183.485 328.006 183.914C328.748 184.343 329.366 184.959 329.8 185.701C330.234 186.444 330.469 187.288 330.482 188.149C330.494 189.011 330.285 189.861 329.873 190.617Z" fill="white"/>
<path d="M211.092 107.686C207.095 107.996 203.141 108.724 199.294 109.858L182.893 48.601C190.236 46.2493 197.811 44.7101 205.485 44.0108H205.501L211.092 107.686Z" fill="white"/>
<path d="M191.1 112.874C187.693 114.392 184.433 116.224 181.36 118.346L124.448 38.4115C131.302 31.3228 138.949 25.0593 147.234 19.7463L191.1 112.874Z" fill="white"/>
<path d="M172.666 125.557C170 128.242 167.576 131.162 165.422 134.28L119.946 102.05C123.127 95.8391 126.905 89.9575 131.226 84.4897L172.666 125.557Z" fill="white"/>
<path d="M160.456 142.747C159.043 145.647 157.864 148.657 156.932 151.749L87.8931 135.93C87.7835 133.679 87.7179 131.429 87.7179 129.156C87.7101 122.791 88.171 116.434 89.0969 110.138L160.456 142.747Z" fill="white"/>
<path d="M259.044 6.66301L233.106 109.697C229.351 108.637 225.502 107.957 221.614 107.667L229.1 0C239.312 0.994339 249.366 3.23163 259.044 6.66301Z" fill="white"/>
<path d="M285.806 70.2126L251.755 118.483C248.693 116.336 245.437 114.482 242.031 112.946L268.626 57.8468C274.738 61.3957 280.492 65.5373 285.806 70.2126Z" fill="white"/>
<path d="M337.211 84.0377L267.516 134.275C265.345 131.139 262.898 128.208 260.205 125.516L324.975 59.283C329.918 67.0709 334.02 75.3697 337.211 84.0377Z" fill="white"/>
<path d="M322.125 141.369L276.47 153.425C275.538 149.99 274.307 146.644 272.792 143.427L318.284 121.244C320.197 127.814 321.483 134.553 322.125 141.369Z" fill="white"/>
<path d="M341.282 161.059C339.746 167.212 337.748 173.237 335.306 179.085L278.46 175.621C278.635 173.834 278.723 172.025 278.723 170.194C278.721 167.731 278.575 165.27 278.285 162.824L341.282 161.059Z" fill="white"/>
</g>
<defs>
<clipPath id="clip0_82_218">
<rect width="429" height="273" fill="white"/>
</clipPath>
</defs>
</svg>
