<svg width="103" height="92" viewBox="0 0 103 92" fill="none" xmlns="http://www.w3.org/2000/svg">
<g clip-path="url(#clip0_18_74)">
<path d="M102.585 64.0979C102.455 63.9677 102.302 63.8649 102.133 63.7954C101.964 63.7258 101.784 63.691 101.602 63.6927C101.42 63.6945 101.24 63.7329 101.073 63.8056C100.905 63.8784 100.754 63.9841 100.626 64.1168L77.1222 88.5893L27.8787 39.6274L65.0134 2.42624C65.2679 2.16179 65.4106 1.80585 65.4109 1.43498C65.4111 1.06411 65.269 0.707946 65.0149 0.443098C64.7608 0.178249 64.4152 0.0258765 64.0524 0.0187549C63.6895 0.0116334 63.3384 0.150332 63.0746 0.405017L24.9262 38.62L24.9179 38.634L24.9027 38.6435C24.8488 38.713 24.8017 38.7878 24.762 38.8667C24.7057 38.9394 24.6566 39.0175 24.6154 39.1C24.5766 39.216 24.5526 39.3367 24.544 39.4591C24.5297 39.5155 24.5184 39.5727 24.5103 39.6304V90.5846C24.5105 90.9599 24.6566 91.3197 24.9163 91.5851C25.176 91.8505 25.5281 91.9997 25.8954 92H77.1447C77.3287 91.9994 77.5107 91.9617 77.6804 91.889C77.8501 91.8164 78.004 91.7101 78.1334 91.5764L78.1368 91.572L102.602 66.1006C102.73 65.968 102.831 65.811 102.899 65.6386C102.967 65.4661 103.002 65.2816 103 65.0956C102.998 64.9096 102.961 64.7257 102.89 64.5545C102.819 64.3833 102.715 64.2281 102.585 64.0979ZM39.1733 89.1692L27.281 76.7956V42.9836L73.7352 89.1702L39.1733 89.1692ZM27.281 80.835L35.2916 89.1692H27.281V80.835Z" fill="black"/>
<path d="M50.1227 54.3159C50.3832 54.5806 50.736 54.7287 51.1034 54.7278C51.4708 54.7269 51.8228 54.5769 52.0821 54.3109L102.597 2.41377C102.725 2.282 102.827 2.12569 102.896 1.95376C102.965 1.78183 103.001 1.59764 103 1.41171C103 1.22579 102.964 1.04176 102.894 0.87015C102.824 0.698537 102.721 0.542694 102.592 0.41152C102.463 0.280345 102.31 0.176408 102.142 0.105643C101.974 0.0348782 101.794 -0.00132935 101.612 -0.000911959C101.43 -0.000494565 101.25 0.0365396 101.082 0.108076C100.914 0.179612 100.761 0.28425 100.633 0.416015L50.1183 52.3146C49.8594 52.5807 49.7144 52.9409 49.7152 53.3162C49.716 53.6914 49.8626 54.051 50.1227 54.3159Z" fill="black"/>
<path d="M100.633 26.3663L75.3759 52.3146C75.1167 52.5808 74.9715 52.9412 74.9723 53.3167C74.9731 53.6922 75.1199 54.052 75.3803 54.3169C75.6407 54.5818 75.9934 54.7302 76.3609 54.7293C76.7284 54.7285 77.0804 54.5785 77.3397 54.3124L102.597 28.3636C102.726 28.2318 102.827 28.0755 102.897 27.9036C102.966 27.7317 103.001 27.5475 103.001 27.3615C103 27.1756 102.964 26.9916 102.894 26.82C102.824 26.6484 102.722 26.4925 102.593 26.3613C102.464 26.2302 102.311 26.1262 102.143 26.0555C101.974 25.9847 101.794 25.9485 101.612 25.9489C101.43 25.9493 101.25 25.9864 101.082 26.0579C100.914 26.1294 100.762 26.2346 100.633 26.3663Z" fill="black"/>
<path d="M27.3553 16.1583C27.5393 16.1619 27.7222 16.1279 27.8933 16.0583C28.0643 15.9888 28.2201 15.8851 28.3515 15.7534C28.4829 15.6216 28.5872 15.4644 28.6585 15.291C28.7297 15.1175 28.7664 14.9313 28.7664 14.7432C28.7664 14.5551 28.7297 14.3688 28.6585 14.1954C28.5872 14.0219 28.4829 13.8647 28.3515 13.733C28.2201 13.6012 28.0643 13.4975 27.8933 13.428C27.7222 13.3585 27.5393 13.3245 27.3553 13.328H15.7553V1.41541C15.7553 1.04002 15.6094 0.680004 15.3496 0.414563C15.0899 0.149123 14.7375 0 14.3702 0C14.0028 0 13.6505 0.149123 13.3908 0.414563C13.131 0.680004 12.9851 1.04002 12.9851 1.41541V13.328H1.3851C1.20105 13.3245 1.01815 13.3585 0.847104 13.428C0.676056 13.4975 0.520287 13.6012 0.388902 13.733C0.257517 13.8647 0.153152 14.0219 0.0819075 14.1954C0.0106631 14.3688 -0.0260315 14.5551 -0.0260315 14.7432C-0.0260315 14.9313 0.0106631 15.1175 0.0819075 15.291C0.153152 15.4644 0.257517 15.6216 0.388902 15.7534C0.520287 15.8851 0.676056 15.9888 0.847104 16.0583C1.01815 16.1279 1.20105 16.1619 1.3851 16.1583H12.9851V27.3642C12.9851 27.7396 13.131 28.0996 13.3908 28.3651C13.6505 28.6305 14.0028 28.7796 14.3702 28.7796C14.7375 28.7796 15.0899 28.6305 15.3496 28.3651C15.6094 28.0996 15.7553 27.7396 15.7553 27.3642V16.1583H27.3553Z" fill="black"/>
</g>
<defs>
<clipPath id="clip0_18_74">
<rect width="103" height="92" fill="white"/>
</clipPath>
</defs>
</svg>
