<svg width="65" height="98" viewBox="0 0 65 98" fill="none" xmlns="http://www.w3.org/2000/svg">
<path d="M27.3599 2.37695C31.855 1.56771 36.4912 2.06673 40.7163 3.81934L41.1235 3.99316C45.31 5.82151 48.8878 8.81541 51.4282 12.623L51.6704 12.9941C54.1363 16.8428 55.4495 21.3218 55.4497 25.9004V25.9033C55.4428 32.0403 53.082 37.9323 48.8677 42.3682L48.4536 42.793C43.98 47.2738 37.9136 49.7953 31.5854 49.8027H31.5835C26.8623 49.8029 22.2469 48.401 18.3218 45.7744C14.5193 43.2299 11.5298 39.6468 9.70459 35.4551L9.53174 35.0479C7.72558 30.681 7.25294 25.8759 8.17334 21.2402L8.26416 20.8066C9.23749 16.3389 11.4712 12.2405 14.7046 9.00195L15.02 8.69141C18.3082 5.51784 22.4397 3.35371 26.9253 2.45996L27.3599 2.37695ZM31.5815 8.47461C28.3566 8.47417 25.1991 9.37144 22.4595 11.0605L21.9165 11.4092C19.2338 13.2038 17.1056 15.7083 15.7642 18.6387L15.5063 19.2305C14.1886 22.4156 13.8429 25.921 14.5142 29.3027L14.6519 29.9336C15.396 33.0702 16.9954 35.9433 19.2769 38.2285L19.7407 38.6758C22.0988 40.8691 25.0213 42.3677 28.1851 42.998L28.8198 43.1113C31.9962 43.6225 35.2566 43.2423 38.2368 42.0059L38.8276 41.748C41.7527 40.4053 44.2528 38.2734 46.0454 35.5859L46.394 35.043C48.0812 32.2987 48.9781 29.1351 48.978 25.9033L48.9722 25.4707C48.8566 21.0062 47.0352 16.7499 43.8755 13.585C40.614 10.3181 36.1928 8.48055 31.5815 8.47461Z" fill="#003E1B" stroke="#003E1B" stroke-width="4"/>
<path d="M32.856 43.3379C40.5629 43.5294 47.9136 46.679 53.3774 52.1514L53.8989 52.6865C59.2123 58.279 62.1851 65.7106 62.1851 73.4482V92.0215L62.1812 92.1797C62.1658 92.4976 62.1036 92.8115 61.9966 93.1113L61.9399 93.2598C61.7776 93.6526 61.5392 94.0096 61.2388 94.3105C60.9759 94.5739 60.6701 94.7903 60.3345 94.9492L60.188 95.0137C59.7954 95.1763 59.3747 95.2589 58.9497 95.2588V95.2598H5.26807V95.2588C4.84312 95.2589 4.42232 95.1763 4.02979 95.0137C3.68592 94.8712 3.36923 94.6704 3.09424 94.4209L2.979 94.3105C2.7161 94.0472 2.50071 93.741 2.34229 93.4053L2.27783 93.2598C2.1156 92.8671 2.03248 92.4463 2.03271 92.0215V73.4482C2.03271 65.4611 5.20049 57.8001 10.8403 52.1514L11.3755 51.6289C16.9595 46.3071 24.3805 43.3281 32.1089 43.3281L32.856 43.3379ZM32.1089 49.8027C26.045 49.8027 20.2213 52.1402 15.8384 56.3174L15.4185 56.7275C10.9914 61.1616 8.50342 67.1762 8.50342 73.4482V88.7852H55.7144V73.4482C55.7144 67.3721 53.3795 61.5374 49.2085 57.1475L48.7993 56.7275C44.3722 52.2935 38.3684 49.8027 32.1089 49.8027Z" fill="#003E1B" stroke="#003E1B" stroke-width="4"/>
</svg>
